<?xml version="1.0" standalone="no"?>
<!DOCTYPE svg PUBLIC "-//W3C//DTD SVG 20010904//EN"
 "http://www.w3.org/TR/2001/REC-SVG-20010904/DTD/svg10.dtd">
<svg version="1.0" xmlns="http://www.w3.org/2000/svg"
 width="500.000000pt" height="500.000000pt" viewBox="0 0 500.000000 500.000000"
 preserveAspectRatio="xMidYMid meet">

<g transform="translate(0.000000,500.000000) scale(0.100000,-0.100000)"
fill="#ffffff" stroke="none">
<path d="M2685 4315 c4 -11 17 -47 30 -80 62 -161 93 -433 75 -647 -10 -125
-48 -346 -69 -400 -5 -13 -9 -56 -10 -97 -1 -106 -43 -249 -98 -339 l-20 -33
-1 78 c0 77 -18 168 -49 245 l-16 40 -18 -71 c-51 -200 -207 -423 -554 -789
-118 -124 -171 -188 -190 -228 -45 -95 -67 -198 -72 -343 l-6 -133 22 12 c93
49 639 414 756 504 165 128 352 344 461 536 59 103 67 105 29 5 -113 -302
-346 -550 -889 -951 -385 -283 -465 -362 -516 -508 -27 -75 -27 -211 -1 -295
15 -49 65 -151 74 -151 1 0 2 57 2 128 0 122 1 130 32 195 18 37 55 91 83 121
76 80 157 118 363 170 97 25 206 57 244 72 190 75 414 211 533 323 l65 61 -71
-34 c-61 -30 -273 -100 -281 -93 -1 2 24 18 55 37 230 135 446 345 596 577 62
96 146 261 185 362 17 46 31 86 31 89 0 4 -16 -17 -36 -47 -47 -69 -152 -176
-233 -235 -35 -25 -65 -45 -67 -43 -2 2 15 38 37 81 120 228 172 482 149 724
-28 307 -146 593 -361 880 -77 102 -276 311 -264 277z"/>
</g>
</svg>
